<svg width="35.000000" height="61.000000" viewBox="0 0 35 61" fill="none" xmlns="http://www.w3.org/2000/svg" xmlns:xlink="http://www.w3.org/1999/xlink">
	<desc>
			Created with Pixso.
	</desc>
	<defs/>
	<path id="&lt;" d="M16.13 38.62Q16.33 38.7 16.45 38.7Q16.73 38.7 16.94 38.58Q17.01 38.53 17.08 38.47Q17.17 38.39 17.23 38.28Q17.33 38.1 17.33 37.86L17.33 33.32Q17.33 32.75 17.05 32.41Q17 32.36 16.95 32.32Q16.57 31.98 16.15 31.68L7 25.69L16.15 19.68Q16.35 19.54 16.54 19.39Q16.75 19.22 16.95 19.03Q17 18.99 17.04 18.94Q17.33 18.59 17.33 18L17.33 13.5Q17.33 13.17 17.17 12.96Q17.13 12.91 17.08 12.86Q17 12.78 16.91 12.73Q16.71 12.62 16.45 12.62Q16.33 12.62 16.13 12.7Q15.95 12.79 15.73 12.91L0.62 23.2Q0.02 23.62 -0.29 24Q-0.3 24.01 -0.3 24.01Q-0.6 24.39 -0.6 25.01L-0.6 26.31Q-0.6 26.92 -0.31 27.31Q-0.3 27.32 -0.29 27.34Q0.02 27.74 0.62 28.16L15.73 38.45Q15.95 38.53 16.13 38.62Z" fill="#D77CE6" fill-opacity="1.000000" fill-rule="evenodd"/>
	<path id="&lt;" d="M17.36 22.37Q17.16 22.29 17.04 22.29Q16.76 22.29 16.55 22.41Q16.48 22.46 16.41 22.52Q16.32 22.61 16.26 22.71Q16.16 22.89 16.16 23.13L16.16 27.67Q16.16 28.24 16.44 28.58Q16.49 28.63 16.54 28.67Q16.92 29.01 17.34 29.31L26.49 35.3L17.34 41.31Q17.14 41.45 16.95 41.6Q16.74 41.77 16.54 41.96Q16.49 42 16.45 42.05Q16.16 42.4 16.16 43L16.16 47.49Q16.16 47.82 16.32 48.03Q16.36 48.08 16.41 48.13Q16.49 48.21 16.58 48.26Q16.78 48.37 17.04 48.37Q17.16 48.37 17.36 48.29Q17.54 48.2 17.76 48.08L32.87 37.79Q33.47 37.37 33.78 36.99Q33.79 36.98 33.79 36.98Q34.09 36.6 34.09 35.98L34.09 34.68Q34.09 34.07 33.8 33.68Q33.79 33.67 33.78 33.65Q33.47 33.25 32.87 32.83L17.76 22.54Q17.54 22.46 17.36 22.37Z" fill="#753DCD" fill-opacity="1.000000" fill-rule="evenodd"/>
</svg>
