<svg width="15.000000" height="14.000000" viewBox="0 0 15 14" fill="none" xmlns="http://www.w3.org/2000/svg" xmlns:xlink="http://www.w3.org/1999/xlink">
	<desc>
			Created with Pixso.
	</desc>
	<defs/>
	<path id="Vector" d="M5.1 2.1C5.94 0.59 6.36 -0.17 7 -0.17C7.63 -0.17 8.05 0.59 8.89 2.1L9.11 2.49C9.35 2.92 9.47 3.14 9.66 3.28C9.85 3.42 10.08 3.47 10.54 3.58L10.97 3.68C12.61 4.05 13.43 4.23 13.62 4.86C13.82 5.49 13.26 6.14 12.14 7.45L11.85 7.79C11.53 8.16 11.38 8.34 11.3 8.57C11.23 8.8 11.26 9.05 11.31 9.55L11.35 10C11.52 11.74 11.6 12.61 11.09 13C10.58 13.39 9.81 13.04 8.28 12.33L7.88 12.15C7.44 11.95 7.23 11.85 7 11.85C6.76 11.85 6.55 11.95 6.11 12.15L5.71 12.33C4.18 13.04 3.41 13.39 2.9 13C2.39 12.61 2.47 11.74 2.64 10L2.69 9.55C2.73 9.05 2.76 8.8 2.69 8.57C2.61 8.34 2.46 8.16 2.14 7.79L1.85 7.45C0.73 6.14 0.17 5.49 0.37 4.86C0.56 4.23 1.38 4.05 3.02 3.68L3.45 3.58C3.91 3.47 4.14 3.42 4.33 3.28C4.52 3.14 4.64 2.92 4.88 2.49L5.1 2.1Z" fill="#CCBE43" fill-opacity="1.000000" fill-rule="nonzero"/>
	<path id="Vector" d="M9.11 2.49C9.35 2.92 9.47 3.14 9.66 3.28C9.85 3.42 10.08 3.47 10.54 3.58L10.97 3.68C12.61 4.05 13.43 4.23 13.62 4.86C13.82 5.49 13.26 6.14 12.14 7.45L11.85 7.79C11.53 8.16 11.38 8.34 11.3 8.57C11.23 8.8 11.26 9.05 11.31 9.55L11.35 10C11.52 11.74 11.6 12.61 11.09 13C10.58 13.39 9.81 13.04 8.28 12.33L7.88 12.15C7.44 11.95 7.23 11.85 7 11.85C6.76 11.85 6.55 11.95 6.11 12.15L5.71 12.33C4.18 13.04 3.41 13.39 2.9 13C2.39 12.61 2.47 11.74 2.64 10L2.69 9.55C2.73 9.05 2.76 8.8 2.69 8.57C2.61 8.34 2.46 8.16 2.14 7.79L1.85 7.45C0.73 6.14 0.17 5.49 0.37 4.86C0.56 4.23 1.38 4.05 3.02 3.68L3.45 3.58C3.91 3.47 4.14 3.42 4.33 3.28C4.52 3.14 4.64 2.92 4.88 2.49L5.1 2.1C5.94 0.59 6.36 -0.17 7 -0.17C7.63 -0.17 8.05 0.59 8.89 2.1L9.11 2.49Z" stroke="#CCBE43" stroke-opacity="1.000000" stroke-width="1.500000"/>
</svg>
