<svg width="29.000000" height="29.000000" viewBox="0 0 29 29" fill="none" xmlns="http://www.w3.org/2000/svg" xmlns:xlink="http://www.w3.org/1999/xlink">
	<desc>
			Created with Pixso.
	</desc>
	<defs/>
	<path id="Vector" d="M25.93 7.07L21.21 2.38C19.37 0.59 16.96 -0.41 14.37 -0.41C11.78 -0.41 9.37 0.59 7.56 2.38L2.84 7.07C1 8.86 0 11.25 0 13.81C0 16.37 1 18.75 2.81 20.55L7.53 25.21C9.34 27 11.78 28 14.34 28C16.84 28 19.23 27.06 21.04 25.32L25.87 20.55C27.68 18.75 28.69 16.34 28.69 13.81C28.75 11.25 27.77 8.86 25.93 7.07Z" fill="#AFB2BF" fill-opacity="1.000000" fill-rule="nonzero"/>
	<path id="Vector" d="M17.85 22.02C16.96 22.88 15.72 23.42 14.4 23.42C13.02 23.42 11.78 22.88 10.86 21.97L13.19 19.66C13.51 19.98 13.91 20.15 14.4 20.15C14.86 20.15 15.29 19.95 15.61 19.66L20.32 15C20.64 14.69 20.81 14.29 20.81 13.81C20.81 13.35 20.61 12.93 20.32 12.61C20.01 12.3 19.6 12.13 19.11 12.13C18.62 12.13 18.22 12.33 17.91 12.61L13.19 17.3C12.3 18.19 11.04 18.75 9.65 18.75C8.28 18.75 7.04 18.19 6.12 17.3C5.23 16.42 4.65 15.17 4.65 13.81C4.65 12.44 5.2 11.22 6.12 10.31L10.83 5.65C11.73 4.77 12.99 4.2 14.37 4.2C15.75 4.2 16.99 4.74 17.91 5.65L15.58 7.95C15.26 7.64 14.86 7.47 14.37 7.47C13.88 7.47 13.48 7.67 13.16 7.95L8.45 12.61C8.13 12.93 7.96 13.32 7.96 13.81C7.96 14.26 8.16 14.69 8.45 15C8.76 15.31 9.17 15.49 9.65 15.49C10.11 15.49 10.55 15.29 10.86 15L15.58 10.34C16.47 9.46 17.73 8.89 19.11 8.89C20.49 8.89 21.73 9.43 22.65 10.34C23.54 11.22 24.12 12.47 24.12 13.84C24.12 15.2 23.57 16.42 22.65 17.33L17.85 22.02Z" fill="#1E1F29" fill-opacity="1.000000" fill-rule="nonzero"/>
</svg>
