<svg width="91.000000" height="34.000000" viewBox="0 0 91 34" fill="none" xmlns="http://www.w3.org/2000/svg" xmlns:xlink="http://www.w3.org/1999/xlink">
	<desc>
			Created with Pixso.
	</desc>
	<defs>
		<clipPath id="clip206_1873">
			<rect id="Frame" width="91.000000" height="34.000000" fill="white" fill-opacity="0"/>
		</clipPath>
	</defs>
	<rect id="Frame" width="91.000000" height="34.000000" fill="#FFFFFF" fill-opacity="0"/>
	<g clip-path="url(#clip206_1873)">
		<path id="Vector" d="M14.05 8.11L7.02 4.05L0 8.11L0 4.05L7.02 0L14.05 4.05L14.05 8.11Z" fill="#AFB2BF" fill-opacity="1.000000" fill-rule="nonzero"/>
		<path id="Vector" d="M0 11.51L3.67 11.51L3.67 20.45C3.67 22.76 5.4 23.89 7.02 23.89C8.65 23.89 10.37 22.73 10.37 20.42L10.37 11.51L14.05 11.51L14.05 20.67C14.05 22.79 13.38 24.44 12.04 25.56C10.7 26.69 9.03 27.24 6.99 27.24C4.95 27.24 3.28 26.69 1.97 25.56C0.66 24.44 0 22.86 0 20.76L0 11.51ZM45.86 22.62C44.75 23.62 43.48 24.1 42.03 24.1C39.39 24.1 37.62 22.6 37.42 20.27L49.31 20.27C49.31 20.27 49.39 19.52 49.39 18.81C49.39 16.62 48.69 14.8 47.26 13.31C45.86 11.82 44.04 11.09 41.82 11.09C39.48 11.09 37.56 11.82 36.04 13.31C34.55 14.8 33.79 16.74 33.79 19.18L33.79 19.3C33.79 21.7 34.55 23.62 36.04 25.05C37.53 26.47 39.51 27.2 41.91 27.2C44.7 27.2 46.93 26.1 48.59 24.2L45.86 22.62ZM38.87 15.16C39.69 14.52 40.69 14.19 41.82 14.19C42.88 14.19 43.76 14.52 44.52 15.19C45.25 15.8 45.64 16.55 45.68 17.41L37.52 17.41C37.63 16.52 38.08 15.77 38.87 15.16L38.87 15.16ZM82.9 29.27C81.41 32.8 79.85 33.99 77.46 33.99L75.8 33.99L75.8 30.73L77.14 30.73C77.96 30.73 78.73 30.42 79.46 28.74L80.19 27.05L73.89 11.51L77.63 11.51L82.1 22.7L86.7 11.51L90.44 11.51L82.9 29.27ZM28.37 5.64L28.37 12.9C27.17 11.82 25.29 11.18 23.48 11.18C21.32 11.18 19.49 11.94 18 13.49C16.54 15.01 15.81 16.89 15.81 19.17C15.81 21.46 16.54 23.34 18 24.89C19.49 26.41 21.32 27.17 23.48 27.17C25.97 27.17 27.54 26.2 28.37 25.43L28.37 26.84L32.02 26.84L32.02 5.64L28.37 5.64ZM27.28 22.52C26.39 23.4 25.27 23.86 23.96 23.86C22.65 23.86 21.59 23.4 20.71 22.52C19.86 21.64 19.43 20.51 19.43 19.18C19.43 17.84 19.86 16.71 20.71 15.83C21.59 14.95 22.65 14.49 23.96 14.49C25.27 14.49 26.39 14.95 27.28 15.83C28.19 16.71 28.65 17.84 28.65 19.18C28.65 20.51 28.19 21.64 27.28 22.52ZM68.22 11.21C65.44 11.21 64 12.36 63.02 13.47C62.62 12.71 61.51 11.21 58.91 11.21C56.72 11.21 55.42 12.32 54.78 13.11L54.78 11.51L51.16 11.51L51.16 26.84L54.78 26.84L54.78 18.02C54.78 15.95 56.05 14.46 57.76 14.46C59.49 14.46 60.49 15.77 60.49 17.87L60.49 26.84L64.11 26.84L64.11 18.02C64.11 15.92 65.36 14.46 67.15 14.46C68.89 14.46 69.89 15.77 69.89 17.87L69.89 26.84L73.54 26.84L73.54 17.35C73.54 13.36 71.39 11.21 68.22 11.21L68.22 11.21Z" fill="#AFB2BF" fill-opacity="1.000000" fill-rule="nonzero"/>
	</g>
</svg>
