<svg width="20.000000" height="20.000000" viewBox="0 0 20 20" fill="none" xmlns="http://www.w3.org/2000/svg" xmlns:xlink="http://www.w3.org/1999/xlink">
	<desc>
			Created with Pixso.
	</desc>
	<defs/>
	<path id="Fill 1" d="M0 10C0 15.5139 4.48608 20 10 20C15.5139 20 20 15.5139 20 10C20 4.48608 15.5139 0 10 0C4.48608 0 0 4.48608 0 10ZM1.5 10C1.5 5.31299 5.31299 1.5 10 1.5C14.687 1.5 18.5 5.31299 18.5 10C18.5 14.687 14.687 18.5 10 18.5C5.31299 18.5 1.5 14.687 1.5 10Z" clip-rule="evenodd" fill="#FAFAFA" fill-opacity="1.000000" fill-rule="evenodd"/>
	<path id="Fill 3" d="M13.43 13.69C13.3 13.69 13.16 13.65 13.04 13.58L9.27 11.33C9.05 11.2 8.91 10.95 8.91 10.69L8.91 5.84C8.91 5.43 9.24 5.09 9.66 5.09C10.07 5.09 10.41 5.43 10.41 5.84L10.41 10.26L13.81 12.29C14.17 12.51 14.28 12.97 14.07 13.32C13.93 13.56 13.68 13.69 13.43 13.69Z" fill="#FAFAFA" fill-opacity="1.000000" fill-rule="evenodd"/>
</svg>
