<svg width="26.000000" height="26.000000" viewBox="0 0 26 26" fill="none" xmlns="http://www.w3.org/2000/svg" xmlns:xlink="http://www.w3.org/1999/xlink">
	<desc>
			Created with Pixso.
	</desc>
	<defs/>
	<path id="Vector" d="M3.77 -0.38L20.75 -0.38C23.32 -0.38 25.41 1.71 25.41 4.3L25.41 20.69C25.41 23.28 23.32 25.37 20.75 25.37L3.77 25.37C1.2 25.37 -0.88 23.28 -0.88 20.69L-0.88 4.3C-0.88 1.71 1.2 -0.38 3.77 -0.38Z" fill="#470137" fill-opacity="1.000000" fill-rule="nonzero"/>
	<path id="Vector" d="M12.94 6.39L9.66 11.83L13.16 17.61C13.18 17.66 13.19 17.7 13.18 17.74C13.17 17.79 13.13 17.75 13.06 17.77L10.55 17.77C10.38 17.77 10.26 17.75 10.18 17.64C9.95 17.18 9.71 16.73 9.48 16.27C9.25 15.82 9 15.36 8.74 14.88C8.47 14.41 8.21 13.94 7.95 13.45L7.93 13.45C7.7 13.93 7.44 14.4 7.19 14.87C6.94 15.35 6.69 15.82 6.45 16.28C6.2 16.74 5.94 17.22 5.69 17.67C5.65 17.78 5.56 17.79 5.44 17.79L3.03 17.79C2.99 17.79 2.95 17.81 2.95 17.75C2.94 17.71 2.95 17.67 2.98 17.63L6.38 12.02L3.06 6.38C3.03 6.33 3.02 6.29 3.04 6.27C3.06 6.23 3.11 6.22 3.15 6.22L5.64 6.22C5.69 6.22 5.75 6.23 5.79 6.24C5.83 6.27 5.87 6.3 5.9 6.34C6.11 6.82 6.35 7.29 6.6 7.76C6.86 8.24 7.12 8.7 7.39 9.16C7.65 9.62 7.89 10.09 8.12 10.56L8.14 10.56C8.37 10.07 8.62 9.6 8.86 9.14C9.1 8.68 9.35 8.21 9.6 7.75C9.85 7.29 10.09 6.82 10.34 6.37C10.35 6.32 10.37 6.28 10.4 6.26C10.44 6.23 10.49 6.22 10.54 6.23L12.85 6.23C12.91 6.22 12.96 6.26 12.98 6.31C12.99 6.32 12.96 6.37 12.94 6.39Z" fill="#FF61F6" fill-opacity="1.000000" fill-rule="nonzero"/>
	<path id="Vector" d="M18 18C17.19 18.01 16.38 17.84 15.65 17.5C14.96 17.18 14.39 16.65 13.99 16.01C13.59 15.33 13.39 14.5 13.39 13.5C13.38 12.68 13.59 11.88 13.99 11.17C14.41 10.46 15.01 9.86 15.74 9.47C16.5 9.04 17.42 8.83 18.51 8.83C18.56 8.83 18.64 8.83 18.74 8.84C18.83 8.85 18.94 8.85 19.08 8.86L19.08 5.39C19.08 5.31 19.11 5.27 19.19 5.27L21.41 5.27C21.46 5.25 21.51 5.3 21.52 5.34C21.52 5.35 21.52 5.36 21.52 5.36L21.52 15.84C21.52 16.04 21.53 16.26 21.54 16.5C21.56 16.73 21.57 16.95 21.58 17.14C21.58 17.22 21.55 17.28 21.47 17.31C20.9 17.56 20.3 17.73 19.69 17.84C19.13 17.94 18.57 18 18 18ZM19.08 15.8L19.08 10.95C18.98 10.93 18.88 10.91 18.78 10.9C18.66 10.89 18.54 10.88 18.42 10.88C17.99 10.88 17.56 10.97 17.18 11.16C16.81 11.35 16.49 11.63 16.25 11.98C16.01 12.33 15.89 12.8 15.89 13.38C15.88 13.76 15.94 14.15 16.07 14.51C16.18 14.81 16.35 15.07 16.57 15.29C16.78 15.49 17.03 15.64 17.31 15.73C17.61 15.83 17.91 15.87 18.22 15.87C18.39 15.87 18.54 15.86 18.68 15.85C18.82 15.86 18.94 15.84 19.08 15.8Z" fill="#FF61F6" fill-opacity="1.000000" fill-rule="nonzero"/>
</svg>
